<mxfile host="app.diagrams.net" modified="2022-04-12T02:40:04.025Z" agent="5.0 (Macintosh; Intel Mac OS X 10_15_7) AppleWebKit/605.1.15 (KHTML, like Gecko) Version/15.4 Safari/605.1.15" etag="4Yvo9pPaQFklmMEZoUYF" version="17.4.2" type="github">
  <diagram id="cDTi3-aaGGI5altgUes1" name="Page-1">
    <mxGraphModel dx="761" dy="542" grid="0" gridSize="10" guides="1" tooltips="1" connect="1" arrows="1" fold="1" page="1" pageScale="1" pageWidth="827" pageHeight="1169" math="0" shadow="0">
      <root>
        <mxCell id="0" />
        <mxCell id="1" parent="0" />
        <mxCell id="WO1pGW2U2S3G9tMIrwMf-6" style="edgeStyle=orthogonalEdgeStyle;rounded=0;orthogonalLoop=1;jettySize=auto;html=1;exitX=1;exitY=0.5;exitDx=0;exitDy=0;entryX=0;entryY=0.5;entryDx=0;entryDy=0;" edge="1" parent="1" source="WO1pGW2U2S3G9tMIrwMf-1" target="WO1pGW2U2S3G9tMIrwMf-2">
          <mxGeometry relative="1" as="geometry" />
        </mxCell>
        <mxCell id="WO1pGW2U2S3G9tMIrwMf-1" value="account/login" style="rounded=1;whiteSpace=wrap;html=1;" vertex="1" parent="1">
          <mxGeometry x="80" y="120" width="120" height="40" as="geometry" />
        </mxCell>
        <mxCell id="WO1pGW2U2S3G9tMIrwMf-7" style="edgeStyle=orthogonalEdgeStyle;rounded=0;orthogonalLoop=1;jettySize=auto;html=1;exitX=1;exitY=0.5;exitDx=0;exitDy=0;entryX=0;entryY=0.5;entryDx=0;entryDy=0;" edge="1" parent="1" source="WO1pGW2U2S3G9tMIrwMf-2" target="WO1pGW2U2S3G9tMIrwMf-4">
          <mxGeometry relative="1" as="geometry" />
        </mxCell>
        <mxCell id="WO1pGW2U2S3G9tMIrwMf-10" style="edgeStyle=orthogonalEdgeStyle;rounded=0;orthogonalLoop=1;jettySize=auto;html=1;exitX=0.5;exitY=1;exitDx=0;exitDy=0;entryX=0;entryY=0.5;entryDx=0;entryDy=0;" edge="1" parent="1" source="WO1pGW2U2S3G9tMIrwMf-2" target="WO1pGW2U2S3G9tMIrwMf-5">
          <mxGeometry relative="1" as="geometry" />
        </mxCell>
        <mxCell id="WO1pGW2U2S3G9tMIrwMf-2" value="cart/add" style="rounded=1;whiteSpace=wrap;html=1;" vertex="1" parent="1">
          <mxGeometry x="240" y="120" width="120" height="40" as="geometry" />
        </mxCell>
        <mxCell id="WO1pGW2U2S3G9tMIrwMf-3" value="cart/delete" style="rounded=1;whiteSpace=wrap;html=1;" vertex="1" parent="1">
          <mxGeometry x="560" y="120" width="120" height="40" as="geometry" />
        </mxCell>
        <mxCell id="WO1pGW2U2S3G9tMIrwMf-8" style="edgeStyle=orthogonalEdgeStyle;rounded=0;orthogonalLoop=1;jettySize=auto;html=1;exitX=1;exitY=0.5;exitDx=0;exitDy=0;entryX=0;entryY=0.5;entryDx=0;entryDy=0;" edge="1" parent="1" source="WO1pGW2U2S3G9tMIrwMf-4" target="WO1pGW2U2S3G9tMIrwMf-3">
          <mxGeometry relative="1" as="geometry" />
        </mxCell>
        <mxCell id="WO1pGW2U2S3G9tMIrwMf-4" value="cart/changeqty" style="rounded=1;whiteSpace=wrap;html=1;" vertex="1" parent="1">
          <mxGeometry x="400" y="120" width="120" height="40" as="geometry" />
        </mxCell>
        <mxCell id="WO1pGW2U2S3G9tMIrwMf-5" value="cart/checkout" style="rounded=1;whiteSpace=wrap;html=1;" vertex="1" parent="1">
          <mxGeometry x="400" y="200" width="120" height="40" as="geometry" />
        </mxCell>
        <mxCell id="WO1pGW2U2S3G9tMIrwMf-15" style="edgeStyle=orthogonalEdgeStyle;rounded=0;orthogonalLoop=1;jettySize=auto;html=1;exitX=1;exitY=0.5;exitDx=0;exitDy=0;entryX=0;entryY=0.5;entryDx=0;entryDy=0;" edge="1" parent="1" source="WO1pGW2U2S3G9tMIrwMf-11" target="WO1pGW2U2S3G9tMIrwMf-12">
          <mxGeometry relative="1" as="geometry" />
        </mxCell>
        <mxCell id="WO1pGW2U2S3G9tMIrwMf-11" value="merchant/signup" style="rounded=1;whiteSpace=wrap;html=1;" vertex="1" parent="1">
          <mxGeometry x="80" y="360" width="120" height="40" as="geometry" />
        </mxCell>
        <mxCell id="WO1pGW2U2S3G9tMIrwMf-16" style="edgeStyle=orthogonalEdgeStyle;rounded=0;orthogonalLoop=1;jettySize=auto;html=1;exitX=1;exitY=0.5;exitDx=0;exitDy=0;entryX=0;entryY=0.5;entryDx=0;entryDy=0;" edge="1" parent="1" source="WO1pGW2U2S3G9tMIrwMf-12" target="WO1pGW2U2S3G9tMIrwMf-13">
          <mxGeometry relative="1" as="geometry" />
        </mxCell>
        <mxCell id="WO1pGW2U2S3G9tMIrwMf-12" value="account&lt;br&gt;&amp;nbsp;(personal &amp;amp; issuer)" style="rounded=1;whiteSpace=wrap;html=1;" vertex="1" parent="1">
          <mxGeometry x="240" y="360" width="120" height="40" as="geometry" />
        </mxCell>
        <mxCell id="WO1pGW2U2S3G9tMIrwMf-17" style="edgeStyle=orthogonalEdgeStyle;rounded=0;orthogonalLoop=1;jettySize=auto;html=1;exitX=1;exitY=0.5;exitDx=0;exitDy=0;entryX=0;entryY=0.5;entryDx=0;entryDy=0;" edge="1" parent="1" source="WO1pGW2U2S3G9tMIrwMf-13" target="WO1pGW2U2S3G9tMIrwMf-14">
          <mxGeometry relative="1" as="geometry" />
        </mxCell>
        <mxCell id="WO1pGW2U2S3G9tMIrwMf-13" value="get account token" style="rounded=1;whiteSpace=wrap;html=1;" vertex="1" parent="1">
          <mxGeometry x="400" y="360" width="120" height="40" as="geometry" />
        </mxCell>
        <mxCell id="WO1pGW2U2S3G9tMIrwMf-24" style="edgeStyle=orthogonalEdgeStyle;rounded=0;orthogonalLoop=1;jettySize=auto;html=1;exitX=0.5;exitY=1;exitDx=0;exitDy=0;entryX=0.5;entryY=0;entryDx=0;entryDy=0;" edge="1" parent="1" source="WO1pGW2U2S3G9tMIrwMf-14" target="WO1pGW2U2S3G9tMIrwMf-18">
          <mxGeometry relative="1" as="geometry" />
        </mxCell>
        <mxCell id="WO1pGW2U2S3G9tMIrwMf-14" value="account/topup" style="rounded=1;whiteSpace=wrap;html=1;" vertex="1" parent="1">
          <mxGeometry x="560" y="360" width="120" height="40" as="geometry" />
        </mxCell>
        <mxCell id="WO1pGW2U2S3G9tMIrwMf-25" style="edgeStyle=orthogonalEdgeStyle;rounded=0;orthogonalLoop=1;jettySize=auto;html=1;exitX=0;exitY=0.5;exitDx=0;exitDy=0;entryX=1;entryY=0.5;entryDx=0;entryDy=0;" edge="1" parent="1" source="WO1pGW2U2S3G9tMIrwMf-18" target="WO1pGW2U2S3G9tMIrwMf-21">
          <mxGeometry relative="1" as="geometry" />
        </mxCell>
        <mxCell id="WO1pGW2U2S3G9tMIrwMf-18" value="transaction/create" style="rounded=1;whiteSpace=wrap;html=1;" vertex="1" parent="1">
          <mxGeometry x="560" y="440" width="120" height="40" as="geometry" />
        </mxCell>
        <mxCell id="WO1pGW2U2S3G9tMIrwMf-26" style="edgeStyle=orthogonalEdgeStyle;rounded=0;orthogonalLoop=1;jettySize=auto;html=1;exitX=0;exitY=0.5;exitDx=0;exitDy=0;entryX=1;entryY=0.5;entryDx=0;entryDy=0;" edge="1" parent="1" source="WO1pGW2U2S3G9tMIrwMf-21" target="WO1pGW2U2S3G9tMIrwMf-22">
          <mxGeometry relative="1" as="geometry" />
        </mxCell>
        <mxCell id="WO1pGW2U2S3G9tMIrwMf-21" value="transaction/confirm" style="rounded=1;whiteSpace=wrap;html=1;" vertex="1" parent="1">
          <mxGeometry x="400" y="440" width="120" height="40" as="geometry" />
        </mxCell>
        <mxCell id="WO1pGW2U2S3G9tMIrwMf-27" style="edgeStyle=orthogonalEdgeStyle;rounded=0;orthogonalLoop=1;jettySize=auto;html=1;exitX=0;exitY=0.5;exitDx=0;exitDy=0;" edge="1" parent="1" source="WO1pGW2U2S3G9tMIrwMf-22" target="WO1pGW2U2S3G9tMIrwMf-23">
          <mxGeometry relative="1" as="geometry" />
        </mxCell>
        <mxCell id="WO1pGW2U2S3G9tMIrwMf-22" value="transaction/verify" style="rounded=1;whiteSpace=wrap;html=1;" vertex="1" parent="1">
          <mxGeometry x="240" y="440" width="120" height="40" as="geometry" />
        </mxCell>
        <mxCell id="WO1pGW2U2S3G9tMIrwMf-23" value="transaction/cancle" style="rounded=1;whiteSpace=wrap;html=1;" vertex="1" parent="1">
          <mxGeometry x="80" y="440" width="120" height="40" as="geometry" />
        </mxCell>
      </root>
    </mxGraphModel>
  </diagram>
</mxfile>
